<svg width="17" height="23" viewBox="0 0 17 23" fill="none" xmlns="http://www.w3.org/2000/svg">
<path fill-rule="evenodd" clip-rule="evenodd" d="M8.74478 1C4.46873 1 1.00244 4.29419 1.00244 8.35622C1.00433 8.66257 1.02644 8.96845 1.06863 9.27188C1.73056 15.0108 8.24172 21.6301 8.24172 21.6301C8.33768 21.7343 8.45119 21.821 8.5771 21.886L8.79774 21.95L9.01838 21.886C9.14489 21.8199 9.25968 21.7334 9.35817 21.6301C9.35817 21.6301 15.7767 15.0108 16.4231 9.25865C16.4633 8.95947 16.4847 8.65807 16.4871 8.35622C16.4871 4.29419 13.0208 1 8.74478 1ZM15.6046 8.35622C15.6046 4.76195 12.5266 1.83844 8.74478 1.83844C4.96297 1.83844 1.88501 4.76195 1.88722 8.3496C1.8893 8.62053 1.9092 8.89104 1.94679 9.15936V9.1726C2.52929 14.2275 8.03432 20.165 8.79995 20.9681C9.55675 20.165 14.9779 14.2143 15.5472 9.17039V9.15936C15.5833 8.89313 15.6025 8.62488 15.6046 8.35622ZM12.6612 8.29003C12.6612 10.342 10.9049 12.0101 8.74478 12.0101C6.58469 12.0101 4.82838 10.342 4.82838 8.29003C4.82838 6.23805 6.58469 4.56999 8.74478 4.56999C10.9049 4.56999 12.6612 6.23805 12.6612 8.29003ZM5.71095 8.29003C5.71095 9.88086 7.07011 11.1716 8.74478 11.1716C10.4195 11.1716 11.7786 9.88086 11.7786 8.29003C11.7786 6.69919 10.4195 5.40844 8.74478 5.40844C7.07011 5.40844 5.71095 6.69919 5.71095 8.29003Z" fill="#303030"/>
<path d="M1.00244 8.35622H0.502432L0.502451 8.3593L1.00244 8.35622ZM1.06863 9.27188L1.56548 9.21458L1.56387 9.20302L1.06863 9.27188ZM8.24172 21.6301L8.60964 21.2915L8.60401 21.2854L8.59817 21.2794L8.24172 21.6301ZM8.5771 21.886L8.34761 22.3302L8.39097 22.3526L8.43783 22.3662L8.5771 21.886ZM8.79774 21.95L8.65847 22.4302L8.79774 22.4706L8.937 22.4302L8.79774 21.95ZM9.01838 21.886L9.15765 22.3662L9.2057 22.3523L9.25004 22.3291L9.01838 21.886ZM9.35817 21.6301L8.9992 21.282L8.99622 21.2851L9.35817 21.6301ZM16.4231 9.25865L15.9275 9.19204L15.9263 9.2028L16.4231 9.25865ZM16.4871 8.35622L16.9871 8.36022V8.35622H16.4871ZM15.6046 8.35622L16.1046 8.36007V8.35622H15.6046ZM1.88722 8.3496L1.38721 8.34991L1.38723 8.35344L1.88722 8.3496ZM1.94679 9.15936H2.44679V9.1245L2.44195 9.08998L1.94679 9.15936ZM1.94679 9.1726H1.44679V9.20131L1.45008 9.22983L1.94679 9.1726ZM8.79995 20.9681L8.43804 21.3131L8.80205 21.695L9.16384 21.311L8.79995 20.9681ZM15.5472 9.17039L16.044 9.22646L16.0472 9.19851V9.17039H15.5472ZM15.5472 9.15936L15.0517 9.09211L15.0472 9.12558V9.15936H15.5472ZM1.50244 8.35622C1.50244 4.5941 4.7205 1.5 8.74478 1.5V0.5C4.21697 0.5 0.502441 3.99429 0.502441 8.35622H1.50244ZM1.56387 9.20302C1.52471 8.92139 1.50418 8.63748 1.50243 8.35314L0.502451 8.3593C0.504472 8.68765 0.528173 9.01552 0.573399 9.34075L1.56387 9.20302ZM8.24172 21.6301C8.59817 21.2794 8.59821 21.2795 8.59823 21.2795C8.5982 21.2795 8.59819 21.2795 8.59814 21.2794C8.59803 21.2793 8.59782 21.2791 8.59751 21.2788C8.5969 21.2781 8.5959 21.2771 8.59451 21.2757C8.59173 21.2729 8.58742 21.2684 8.58161 21.2625C8.57 21.2505 8.55243 21.2323 8.52926 21.2082C8.48292 21.1599 8.41425 21.0877 8.32623 20.9933C8.15018 20.8046 7.89692 20.5277 7.59048 20.1771C6.97721 19.4754 6.15294 18.4811 5.30896 17.3106C3.60697 14.9503 1.88074 11.9491 1.56534 9.21459L0.571927 9.32917C0.918451 12.3335 2.77877 15.5115 4.49784 17.8955C5.36439 19.0973 6.20928 20.1164 6.83754 20.8352C7.15186 21.1948 7.41245 21.4798 7.59507 21.6755C7.68639 21.7734 7.75824 21.849 7.80761 21.9005C7.8323 21.9262 7.85136 21.9459 7.86443 21.9593C7.87096 21.9661 7.876 21.9712 7.87949 21.9748C7.88123 21.9766 7.88259 21.978 7.88355 21.979C7.88404 21.9794 7.88442 21.9798 7.88471 21.9801C7.88485 21.9803 7.88499 21.9804 7.88506 21.9805C7.88518 21.9806 7.88527 21.9807 8.24172 21.6301ZM8.80658 21.4418C8.73265 21.4036 8.66599 21.3527 8.60964 21.2915L7.8738 21.9686C8.00937 22.116 8.16974 22.2384 8.34761 22.3302L8.80658 21.4418ZM8.937 21.4698L8.71636 21.4058L8.43783 22.3662L8.65847 22.4302L8.937 21.4698ZM8.87912 21.4058L8.65847 21.4698L8.937 22.4302L9.15765 22.3662L8.87912 21.4058ZM8.99622 21.2851C8.9355 21.3488 8.86473 21.4021 8.78672 21.4429L9.25004 22.3291C9.42505 22.2376 9.58386 22.118 9.72012 21.975L8.99622 21.2851ZM15.9263 9.2028C15.618 11.9455 13.9172 14.9505 12.2405 17.312C11.409 18.4831 10.5967 19.4779 9.9923 20.1796C9.69029 20.5303 9.44069 20.8073 9.26718 20.996C9.18044 21.0903 9.11276 21.1625 9.0671 21.2108C9.04427 21.2349 9.02695 21.2531 9.01552 21.265C9.0098 21.271 9.00555 21.2754 9.00281 21.2783C9.00145 21.2797 9.00046 21.2807 8.99986 21.2813C8.99956 21.2816 8.99935 21.2819 8.99925 21.282C8.99919 21.282 8.99918 21.282 8.99916 21.2821C8.99917 21.282 8.99922 21.282 9.35817 21.6301C9.71713 21.9781 9.71722 21.978 9.71733 21.9779C9.7174 21.9779 9.71754 21.9777 9.71768 21.9776C9.71796 21.9773 9.71834 21.9769 9.71882 21.9764C9.71977 21.9754 9.72111 21.974 9.72284 21.9722C9.72628 21.9687 9.73125 21.9635 9.73769 21.9568C9.75058 21.9433 9.76938 21.9236 9.79372 21.8978C9.8424 21.8464 9.91324 21.7708 10.0033 21.6729C10.1833 21.4771 10.4402 21.192 10.75 20.8322C11.3693 20.1131 12.202 19.0935 13.0559 17.8909C14.7501 15.5046 16.5818 12.324 16.92 9.31449L15.9263 9.2028ZM15.9871 8.35222C15.9849 8.63314 15.965 8.91363 15.9276 9.19205L16.9187 9.32524C16.9617 9.00531 16.9845 8.68301 16.9871 8.36022L15.9871 8.35222ZM8.74478 1.5C12.7691 1.5 15.9871 4.5941 15.9871 8.35622H16.9871C16.9871 3.99429 13.2726 0.5 8.74478 0.5V1.5ZM8.74478 2.33844C12.2749 2.33844 15.1046 5.06193 15.1046 8.35622H16.1046C16.1046 4.46198 12.7783 1.33844 8.74478 1.33844V2.33844ZM2.38722 8.34929C2.3852 5.06225 5.21425 2.33844 8.74478 2.33844V1.33844C4.7117 1.33844 1.38483 4.46165 1.38722 8.34991L2.38722 8.34929ZM2.44195 9.08998C2.4074 8.84338 2.38911 8.59477 2.3872 8.34576L1.38723 8.35344C1.38948 8.6463 1.41099 8.93869 1.45163 9.22873L2.44195 9.08998ZM2.44679 9.1726V9.15936H1.44679V9.1726H2.44679ZM9.16185 20.6231C8.78804 20.231 7.2394 18.5664 5.71491 16.3789C4.17948 14.1757 2.71983 11.5133 2.4435 9.11536L1.45008 9.22983C1.75625 11.8868 3.34036 14.7206 4.89448 16.9507C6.45954 19.1964 8.04623 20.9021 8.43804 21.3131L9.16185 20.6231ZM15.0503 9.11432C14.7802 11.5083 13.3432 14.1719 11.8315 16.3768C10.3303 18.5664 8.80457 20.2342 8.43605 20.6252L9.16384 21.311C9.55212 20.899 11.1154 19.1898 12.6563 16.9423C14.1867 14.7101 15.745 11.8764 16.044 9.22646L15.0503 9.11432ZM15.0472 9.15936V9.17039H16.0472V9.15936H15.0472ZM15.1046 8.35236C15.1027 8.59982 15.085 8.8469 15.0517 9.09211L16.0426 9.22661C16.0816 8.93937 16.1023 8.64994 16.1045 8.36007L15.1046 8.35236ZM8.74478 12.5101C11.1565 12.5101 13.1612 10.6421 13.1612 8.29003H12.1612C12.1612 10.0419 10.6533 11.5101 8.74478 11.5101V12.5101ZM4.32838 8.29003C4.32838 10.6421 6.33312 12.5101 8.74478 12.5101V11.5101C6.83627 11.5101 5.32838 10.0419 5.32838 8.29003H4.32838ZM8.74478 4.06999C6.33312 4.06999 4.32838 5.93797 4.32838 8.29003H5.32838C5.32838 6.53814 6.83627 5.06999 8.74478 5.06999V4.06999ZM13.1612 8.29003C13.1612 5.93797 11.1565 4.06999 8.74478 4.06999V5.06999C10.6533 5.06999 12.1612 6.53814 12.1612 8.29003H13.1612ZM8.74478 10.6716C7.32166 10.6716 6.21095 9.58075 6.21095 8.29003H5.21095C5.21095 10.181 6.81856 11.6716 8.74478 11.6716V10.6716ZM11.2786 8.29003C11.2786 9.58075 10.1679 10.6716 8.74478 10.6716V11.6716C10.671 11.6716 12.2786 10.181 12.2786 8.29003H11.2786ZM8.74478 5.90844C10.1679 5.90844 11.2786 6.9993 11.2786 8.29003H12.2786C12.2786 6.39909 10.671 4.90844 8.74478 4.90844V5.90844ZM6.21095 8.29003C6.21095 6.9993 7.32166 5.90844 8.74478 5.90844V4.90844C6.81856 4.90844 5.21095 6.39909 5.21095 8.29003H6.21095Z" fill="#E3A545"/>
</svg>
