<svg width="20" height="26" viewBox="0 0 20 26" fill="none" xmlns="http://www.w3.org/2000/svg">
<path fill-rule="evenodd" clip-rule="evenodd" d="M12.737 11.6528C15.0272 10.4292 16.1911 7.80427 15.5604 5.28546C14.9297 2.76666 12.6661 1 10.0696 1C7.47299 1 5.20941 2.76666 4.5787 5.28546C3.94799 7.80427 5.11191 10.4292 7.40208 11.6528C3.59926 12.8312 1.00512 16.3462 1.00015 20.3274C0.997268 20.8234 1.03653 21.3186 1.11752 21.8079C1.14829 21.9741 1.24435 22.1211 1.38426 22.216C6.58506 25.9413 13.5807 25.9413 18.7815 22.216C18.9214 22.1211 19.0175 21.9741 19.0483 21.8079C19.1203 21.3179 19.1507 20.8226 19.139 20.3274C19.134 16.3462 16.5398 12.8312 12.737 11.6528ZM5.67094 6.66196C5.67094 4.23265 7.64029 2.2633 10.0696 2.2633C12.4989 2.2633 14.4683 4.23265 14.4683 6.66196C14.4683 9.09128 12.4989 11.0606 10.0696 11.0606C7.6415 11.0577 5.67388 9.09006 5.67094 6.66196ZM2.3153 21.3438C6.98218 24.5459 13.1384 24.5459 17.8053 21.3438C17.8489 21.0077 17.8703 20.6691 17.8693 20.3302C17.9215 17.5059 16.4447 14.8735 14.0071 13.446C11.5695 12.0186 8.55112 12.0186 6.11353 13.446C3.67595 14.8735 2.19908 17.5059 2.25128 20.3302C2.25029 20.6691 2.27167 21.0077 2.3153 21.3438Z" fill="white"/>
<path d="M15.5604 5.28546L15.7059 5.24903L15.5604 5.28546ZM12.737 11.6528L12.6663 11.5205L12.3495 11.6898L12.6926 11.7961L12.737 11.6528ZM4.5787 5.28546L4.43319 5.24903L4.5787 5.28546ZM7.40208 11.6528L7.44648 11.7961L7.78957 11.6898L7.47277 11.5205L7.40208 11.6528ZM1.00015 20.3274L1.15015 20.3283L1.15015 20.3276L1.00015 20.3274ZM1.11752 21.8079L0.969503 21.8324L0.970022 21.8352L1.11752 21.8079ZM1.38426 22.216L1.47164 22.094L1.46847 22.0919L1.38426 22.216ZM18.7815 22.216L18.6973 22.0918L18.6942 22.0941L18.7815 22.216ZM19.0483 21.8079L19.1959 21.8352L19.1967 21.8297L19.0483 21.8079ZM19.139 20.3274L18.9889 20.3276L18.989 20.331L19.139 20.3274ZM5.67094 6.66196H5.52094V6.66215L5.67094 6.66196ZM10.0696 11.0606L10.0694 11.2106H10.0696V11.0606ZM17.8053 21.3438L17.8902 21.4675L17.9454 21.4296L17.9541 21.3631L17.8053 21.3438ZM2.3153 21.3438L2.16655 21.3631L2.17518 21.4296L2.23044 21.4675L2.3153 21.3438ZM17.8693 20.3302L17.7193 20.3274L17.7193 20.3306L17.8693 20.3302ZM14.0071 13.446L13.9313 13.5755L14.0071 13.446ZM6.11353 13.446L6.18933 13.5755L6.11353 13.446ZM2.25128 20.3302L2.40132 20.3306L2.40126 20.3274L2.25128 20.3302ZM15.4149 5.3219C16.0289 7.77395 14.8958 10.3293 12.6663 11.5205L12.8077 11.7851C15.1586 10.529 16.3533 7.83458 15.7059 5.24903L15.4149 5.3219ZM10.0696 1.15C12.5973 1.15 14.8009 2.86984 15.4149 5.3219L15.7059 5.24903C15.0585 2.66348 12.7349 0.85 10.0696 0.85V1.15ZM4.72421 5.3219C5.3382 2.86984 7.54179 1.15 10.0696 1.15V0.85C7.40418 0.85 5.08062 2.66348 4.43319 5.24903L4.72421 5.3219ZM7.47277 11.5205C5.24329 10.3293 4.11021 7.77395 4.72421 5.3219L4.43319 5.24903C3.78577 7.83458 4.98054 10.529 7.33139 11.7851L7.47277 11.5205ZM1.15015 20.3276C1.15504 16.4121 3.70639 12.955 7.44648 11.7961L7.35768 11.5095C3.49214 12.7073 0.8552 16.2804 0.850148 20.3272L1.15015 20.3276ZM1.2655 21.7834C1.18591 21.3025 1.14732 20.8157 1.15015 20.3283L0.85015 20.3266C0.847222 20.831 0.887159 21.3347 0.96953 21.8324L1.2655 21.7834ZM1.46847 22.0919C1.36175 22.0195 1.28848 21.9074 1.26501 21.7806L0.970022 21.8352C1.00809 22.0409 1.12696 22.2227 1.30006 22.3401L1.46847 22.0919ZM18.6942 22.0941C13.5456 25.782 6.62019 25.782 1.47161 22.0941L1.29692 22.3379C6.54994 26.1007 13.6158 26.1007 18.8689 22.3379L18.6942 22.0941ZM18.9008 21.7806C18.8773 21.9074 18.804 22.0195 18.6973 22.0919L18.8657 22.3401C19.0388 22.2227 19.1577 22.0409 19.1958 21.8352L18.9008 21.7806ZM18.989 20.331C19.0005 20.8177 18.9707 21.3044 18.8999 21.7861L19.1967 21.8297C19.27 21.3313 19.3008 20.8275 19.2889 20.3239L18.989 20.331ZM12.6926 11.7961C16.4327 12.955 18.9841 16.4121 18.989 20.3276L19.289 20.3272C19.2839 16.2804 16.647 12.7073 12.7814 11.5095L12.6926 11.7961ZM10.0696 2.1133C7.55744 2.1133 5.52094 4.14981 5.52094 6.66196H5.82094C5.82094 4.31549 7.72313 2.4133 10.0696 2.4133V2.1133ZM14.6183 6.66196C14.6183 4.14981 12.5818 2.1133 10.0696 2.1133V2.4133C12.4161 2.4133 14.3183 4.31549 14.3183 6.66196H14.6183ZM10.0696 11.2106C12.5818 11.2106 14.6183 9.17412 14.6183 6.66196H14.3183C14.3183 9.00843 12.4161 10.9106 10.0696 10.9106V11.2106ZM5.52094 6.66215C5.52398 9.17294 7.55862 11.2076 10.0694 11.2106L10.0698 10.9106C7.72439 10.9078 5.82378 9.00718 5.82094 6.66178L5.52094 6.66215ZM17.7204 21.2201C13.1047 24.3871 7.01591 24.3871 2.40017 21.2201L2.23044 21.4675C6.94845 24.7047 13.1722 24.7047 17.8902 21.4675L17.7204 21.2201ZM17.7193 20.3306C17.7203 20.6629 17.6993 20.9949 17.6566 21.3245L17.9541 21.3631C17.9985 21.0205 18.0203 20.6752 18.0193 20.3297L17.7193 20.3306ZM13.9313 13.5755C16.3221 14.9755 17.7706 17.5573 17.7194 20.3274L18.0193 20.3329C18.0725 17.4544 16.5673 14.7714 14.0829 13.3166L13.9313 13.5755ZM6.18933 13.5755C8.5801 12.1755 11.5405 12.1755 13.9313 13.5755L14.0829 13.3166C11.5985 11.8618 8.52213 11.8618 6.03774 13.3166L6.18933 13.5755ZM2.40126 20.3274C2.35006 17.5573 3.79856 14.9755 6.18933 13.5755L6.03774 13.3166C3.55334 14.7714 2.0481 17.4544 2.10131 20.3329L2.40126 20.3274ZM2.46405 21.3245C2.42127 20.9949 2.4003 20.6629 2.40128 20.3306L2.10128 20.3297C2.10027 20.6752 2.12207 21.0205 2.16655 21.3631L2.46405 21.3245Z" fill="white"/>
</svg>
