<svg width="24" height="24" viewBox="0 0 24 24" fill="none" xmlns="http://www.w3.org/2000/svg">
<path d="M9.39163 3.61522C9.46648 3.58004 9.54753 3.55995 9.63014 3.55609L9.39163 3.61522ZM9.39163 3.61522C9.31677 3.65041 9.24958 3.69999 9.19389 3.76115C9.1382 3.8223 9.09511 3.89383 9.06707 3.97164C9.03902 4.04945 9.02658 4.13202 9.03045 4.21465C9.03433 4.29727 9.05444 4.37831 9.08964 4.45316C9.12484 4.52801 9.17443 4.59519 9.2356 4.65087C9.29677 4.70654 9.3683 4.74963 9.44612 4.77765C9.52356 4.80554 9.60571 4.81798 9.68793 4.81427M9.39163 3.61522L9.63249 3.60603C9.55643 3.60958 9.48181 3.62808 9.4129 3.66047C9.34399 3.69286 9.28213 3.73851 9.23086 3.79481C9.17959 3.85111 9.13992 3.91696 9.1141 3.98859C9.08829 4.06022 9.07683 4.13624 9.0804 4.2123C9.08396 4.28836 9.10248 4.36298 9.13488 4.43188C9.16729 4.50079 9.21295 4.56263 9.26926 4.61389C9.32557 4.66515 9.39142 4.70481 9.46306 4.73061C9.5347 4.75641 9.61072 4.76785 9.68678 4.76427M9.68793 3.55603C13.0879 3.55666 15.8173 6.31107 15.8175 9.68642C15.8175 9.68654 15.8175 9.68666 15.8175 9.68678H15.7675L9.68793 3.55603ZM9.68793 3.55603C9.68833 3.55605 9.68873 3.55607 9.68912 3.55609L9.68678 3.60603V3.55603H9.68793ZM9.68678 4.76427V4.81427C9.68716 4.81427 9.68755 4.81427 9.68793 4.81427M9.68678 4.76427C12.4385 4.76427 14.6093 6.95827 14.6093 9.68678M9.68678 4.76427L14.6093 9.68678M9.68793 4.81427C12.4112 4.81488 14.5591 6.98592 14.5593 9.68642M9.68793 4.81427L14.5593 9.68642M14.5593 9.68642C14.5593 9.68654 14.5593 9.68666 14.5593 9.68678H14.6093M14.5593 9.68642C14.5593 9.6863 14.5593 9.68619 14.5593 9.68607L14.6093 9.68678M9.68678 0.95C4.83564 0.95 0.95 4.87161 0.95 9.68678C0.95 14.502 4.83564 18.4236 9.68678 18.4236C11.883 18.4236 13.8827 17.6241 15.4123 16.2974L21.9844 22.8694C21.9844 22.8695 21.9844 22.8695 21.9845 22.8696C22.0428 22.9295 22.1124 22.9772 22.1894 23.0099C22.2664 23.0426 22.3491 23.0596 22.4328 23.06C22.5164 23.0604 22.5993 23.044 22.6766 23.012C22.7539 22.9799 22.824 22.9327 22.8828 22.8733C22.9416 22.8138 22.988 22.7432 23.0192 22.6655C23.0504 22.5879 23.0658 22.5048 23.0645 22.4212C23.0633 22.3375 23.0453 22.255 23.0117 22.1784C22.9783 22.1019 22.9299 22.0329 22.8695 21.9753C22.8693 21.9752 22.8692 21.9751 22.869 21.9749L16.2973 15.4032C17.6234 13.8695 18.4236 11.8706 18.4236 9.68678C18.4236 4.87162 14.5379 0.95 9.68678 0.95ZM9.68678 2.20824C13.8613 2.20824 17.1653 5.54647 17.1653 9.68678C17.1653 13.8271 13.8613 17.1653 9.68678 17.1653C5.51224 17.1653 2.20824 13.8271 2.20824 9.68678C2.20824 5.54647 5.51224 2.20824 9.68678 2.20824Z" fill="white" stroke="white" stroke-width="0.1"/>
</svg>
